<?xml version="1.0" encoding="utf-8"?>
<!-- Generator: Adobe Illustrator 24.3.0, SVG Export Plug-In . SVG Version: 6.00 Build 0)  -->
<svg version="1.1"
	 id="svg1577" inkscape:version="1.0 (4035a4fb49, 2020-05-01)" sodipodi:docname="Nickelodeon 1984 Ghost 3.svg" xmlns:cc="http://creativecommons.org/ns#" xmlns:dc="http://purl.org/dc/elements/1.1/" xmlns:inkscape="http://www.inkscape.org/namespaces/inkscape" xmlns:rdf="http://www.w3.org/1999/02/22-rdf-syntax-ns#" xmlns:sodipodi="http://sodipodi.sourceforge.net/DTD/sodipodi-0.dtd" xmlns:svg="http://www.w3.org/2000/svg"
	 xmlns="http://www.w3.org/2000/svg" xmlns:xlink="http://www.w3.org/1999/xlink" x="0px" y="0px" viewBox="0 0 192.7 242.2"
	 style="enable-background:new 0 0 192.7 242.2;" xml:space="preserve">
<style type="text/css">
	.st0{fill:#231F20;}
</style>
<sodipodi:namedview  bordercolor="#666666" borderopacity="1.0" id="base" inkscape:current-layer="layer1" inkscape:cx="128.46949" inkscape:cy="161.48315" inkscape:document-rotation="0" inkscape:document-units="mm" inkscape:pageopacity="0.0" inkscape:pageshadow="2" inkscape:window-height="1001" inkscape:window-maximized="1" inkscape:window-width="1920" inkscape:window-x="-9" inkscape:window-y="-9" inkscape:zoom="2.5916016" pagecolor="#ffffff" showgrid="false">
	</sodipodi:namedview>
<g id="layer1" transform="translate(-19.918184,-95.463255)" inkscape:groupmode="layer" inkscape:label="Layer 1">
	<g id="g2220">
		<path id="path2154" class="st0" d="M84,337.1c-0.2-0.4,0.3-2.5,1.2-4.7c8.2-20.3,9.7-27.8,8.3-41c-1.4-13-4.8-22.6-11.6-32.8
			c-8.1-12.1-13.2-16.6-34.5-30.2c-10.9-7-14.9-10.4-17.3-15.3c-2.2-4.4-2.4-7.8-0.8-13c1.9-6.4,1.7-7.4-3-10.4
			c-6-3.9-7.7-8-5.4-13.5c1.5-3.5,3.9-4.9,8.3-5c5.3,0,6-0.6,4.9-4.1c-0.7-2.2-0.7-3.5,0-6c1.7-5.9,5.8-8.6,13.2-8.6
			c3.6,0,4.5,0.3,6.3,2.1c2.5,2.5,4.1,7.7,5.3,17c1.2,9.4,1.4,10.1,3.5,10.6c1.4,0.4,2.4-0.1,4.4-2.1c3.9-3.8,6.4-9.6,8.5-19.8
			c0.8-3.9,3.4-15.5,4.5-20.2c4.2-18.3,8.7-28,15.4-33.6c4.1-3.4,15.5-9.2,20.4-10.3c9.4-2.2,29.4,0.6,37.9,5.3
			c8.1,4.4,14,14.1,15.6,25.5c1.1,7.6,0.7,27.8-0.7,39.1c-1.3,10.2-0.9,11.9,2.7,11.9c3.1,0,6.2-1.5,10.4-4.9c4.9-3.9,7.6-5,13-5.1
			c5.7-0.1,7.8,0.8,9.5,3.9c1.5,2.8,1.5,10.4,0,12.3c-2,2.7-1.3,4.6,2.7,7.6c4.1,3,6,5.9,6,9.1c0,1.5-1,3-3.8,5.5
			c-2.1,1.9-3.7,3.9-3.7,4.4c0,0.5,0.6,2.2,1.4,3.7c0.8,1.5,1.6,4.2,1.9,5.9c0.4,2.6,0.2,3.4-1.4,5.3l-1.9,2.2l-14.8-0.2
			c-21.4-0.3-24.3,0.8-24.3,9.2c0,2.6,0.8,8.7,1.8,13.6c2.8,14,3,17.6,1.3,25.8c-2.8,13.6-9.5,23.1-20,28c-2.9,1.4-11.9,5-19.9,7.9
			c-22.3,8.2-30.8,12.8-39,21.1C86.1,337.7,84.9,338.4,84,337.1L84,337.1z M123.7,168.6c4.2-2.8,6.4-14.2,3.8-20.2
			c-0.9-2.2-1.5-2.6-3.4-2.6c-5.6,0-9.4,13.6-6.1,21.9C119,170.1,121,170.4,123.7,168.6L123.7,168.6z M111.5,134.8
			c1.8-1.6,1.7-3.4-0.2-5.2c-2.8-2.5-5.7,1.2-3.7,4.9C108.6,136.3,109.7,136.4,111.5,134.8z M135.2,126.1c0.2-2.1-0.1-2.9-1.3-3.6
			c-1.1-0.6-1.8-0.5-2.7,0.4c-2.2,2.2-0.8,6.6,2.1,6.2C134.7,128.9,135,128.3,135.2,126.1L135.2,126.1z"/>
	</g>
</g>
</svg>
